<svg width="75" height="74" viewBox="0 0 75 74" fill="none" xmlns="http://www.w3.org/2000/svg">
<g id="Facebook (icon &#226;&#128;&#148; Colour)">
<path id="Vector" fill-rule="evenodd" clip-rule="evenodd" d="M75 37C75 16.5671 58.2089 0 37.5 0C16.7909 0 0 16.5671 0 37C0 55.4661 13.7113 70.7738 31.6412 73.5529V47.6979H22.1171V37H31.6412V28.8465C31.6412 19.5743 37.2416 14.4492 45.8058 14.4492C49.9085 14.4492 54.201 15.1724 54.201 15.1724V24.2781H49.4708C44.8144 24.2781 43.3588 27.1295 43.3588 30.0588V36.9997H53.7578L52.0969 47.6976H43.3585V73.5524C61.2885 70.7789 74.9995 55.4712 74.9995 36.9997L75 37Z" fill="#1977F3"/>
<path id="Vector_2" fill-rule="evenodd" clip-rule="evenodd" d="M52.0969 47.6976L53.7583 36.9997H43.3591V30.0588C43.3591 27.1346 44.8092 24.2781 49.471 24.2781H54.2016V15.1723C54.2016 15.1723 49.9091 14.4491 45.806 14.4491C37.2419 14.4491 31.6415 19.5692 31.6415 28.8465V37H22.1174V47.6979H31.6415V73.5529C33.5504 73.8489 35.5069 74 37.5003 74C39.4937 74 41.4502 73.8438 43.3591 73.5529V47.6979H52.0974L52.0969 47.6976Z" fill="#FEFEFE"/>
</g>
</svg>
