<svg width="75" height="66" viewBox="0 0 75 66" fill="none" xmlns="http://www.w3.org/2000/svg">
<path d="M37.5 66C58.2107 66 75 51.2254 75 33C75 14.7746 58.2107 0 37.5 0C16.7893 0 0 14.7746 0 33C0 51.2254 16.7893 66 37.5 66Z" fill="#77B3D4"/>
<path opacity="0.2" d="M33.9844 26.0905C33.5156 21.1405 27.6562 18.7686 27.4219 18.6655C27.0703 18.5624 26.8359 18.5624 26.6016 18.5624C19.8047 19.5936 18.8672 22.9968 18.75 23.203V23.8218C26.8359 45.8905 43.5938 49.9124 49.1016 51.253C49.5703 51.3561 49.9219 51.4593 50.1562 51.5624C50.2734 51.5624 50.3906 51.6655 50.5078 51.6655C50.7422 51.6655 50.8594 51.6655 51.0937 51.5624C51.2109 51.4593 55.1953 49.8093 56.25 44.4468C56.25 44.2405 56.25 43.9311 56.1328 43.7249C56.0156 43.6218 53.9062 40.1155 48.1641 38.878C47.8125 38.7749 47.3437 38.878 46.9922 39.0843C45.1172 40.4249 42.6562 41.8686 41.6016 42.0749C34.3359 38.9811 30.2344 32.8968 30.1172 31.7624C30 31.1436 31.6406 28.8749 33.6328 27.0186C33.8672 26.8124 33.9844 26.3999 33.9844 26.0905Z" fill="#231F20"/>
<path d="M33.9844 24.0281C33.5156 19.0781 27.6562 16.7063 27.4219 16.6031C27.0703 16.5 26.8359 16.5 26.6016 16.5C19.8047 17.5312 18.8672 20.9344 18.75 21.1406V21.7594C26.8359 43.8281 43.5938 47.85 49.1016 49.1906C49.5703 49.2938 49.9219 49.3969 50.1562 49.5C50.2734 49.5 50.3906 49.6031 50.5078 49.6031C50.7422 49.6031 50.8594 49.6031 51.0937 49.5C51.2109 49.3969 55.1953 47.7469 56.25 42.3844C56.25 42.1781 56.25 41.8688 56.1328 41.6625C56.0156 41.5594 53.9062 38.0531 48.1641 36.8156C47.8125 36.7125 47.3437 36.8156 46.9922 37.0219C45.1172 38.3625 42.6562 39.8062 41.6016 40.0125C34.3359 36.9187 30.2344 30.8344 30.1172 29.7C30 29.0812 31.6406 26.8125 33.6328 24.9563C33.8672 24.75 33.9844 24.3375 33.9844 24.0281Z" fill="white"/>
</svg>
