<svg width="82" height="76" viewBox="0 0 82 76" fill="none" xmlns="http://www.w3.org/2000/svg">
<ellipse cx="37.3315" cy="35.2294" rx="37.3315" ry="35.2294" transform="matrix(0.996646 -0.0818355 0.0977262 0.995213 0 4.33594)" fill="#D9D9D9"/>
<path fill-rule="evenodd" clip-rule="evenodd" d="M40.7438 0C18.2446 0 0 17.3061 0 38.6552C0 55.7343 11.6743 70.224 27.8631 75.335C29.8993 75.6927 30.6469 74.4967 30.6469 73.4757C30.6469 72.5536 30.6092 69.5087 30.5916 66.279C19.2566 68.617 16.8648 61.7177 16.8648 61.7177C15.0114 57.2502 12.3409 56.0621 12.3409 56.0621C8.64428 53.6629 12.6196 53.7121 12.6196 53.7121C16.711 53.9838 18.8653 57.6963 18.8653 57.6963C22.4992 63.6049 28.3968 61.8963 30.7218 60.9087C31.0875 58.4105 32.1434 56.7046 33.3086 55.7401C24.2588 54.7625 14.7456 51.4479 14.7456 36.6363C14.7456 32.4161 16.3372 28.9678 18.9435 26.2607C18.5205 25.2865 17.1259 21.3555 19.3383 16.031C19.3383 16.031 22.7597 14.9921 30.5457 19.9933C33.7957 19.1369 37.2812 18.7073 40.7438 18.6926C44.2064 18.7073 47.6946 19.1369 50.9507 19.9933C58.7274 14.9921 62.1438 16.031 62.1438 16.031C64.3619 21.3555 62.9667 25.2865 62.5433 26.2607C65.1556 28.9678 66.7368 32.4161 66.7368 36.6363C66.7368 51.4831 57.2052 54.752 48.1325 55.7092C49.5939 56.9088 50.896 59.2614 50.896 62.8676C50.896 68.0399 50.8488 72.2022 50.8488 73.4757C50.8488 74.5041 51.5822 75.7094 53.6474 75.3298C69.8275 70.213 81.4867 55.7286 81.4867 38.6552C81.4867 17.3061 63.2448 0 40.7438 0Z" fill="black"/>
<path d="M13.3787 48.3178C13.3009 48.4856 13.0248 48.5352 12.7733 48.4204C12.5171 48.311 12.3732 48.083 12.4562 47.9153C12.5322 47.7434 12.809 47.6956 13.0646 47.81C13.3214 47.9203 13.4676 48.1505 13.3787 48.3178Z" fill="black"/>
<path d="M14.8094 49.8381C14.6409 49.9871 14.3116 49.9178 14.0881 49.6826C13.8571 49.4483 13.8138 49.1342 13.9846 48.9833C14.1583 48.8352 14.4777 48.9049 14.7094 49.1388C14.9404 49.3763 14.9854 49.6876 14.8094 49.8381Z" fill="black"/>
<path d="M16.2021 51.7763C15.9857 51.9195 15.6318 51.7854 15.4131 51.4859C15.1966 51.1869 15.1966 50.8277 15.4178 50.6841C15.6371 50.5405 15.9857 50.67 16.2074 50.9667C16.4232 51.2708 16.4232 51.63 16.2021 51.7763Z" fill="black"/>
<path d="M18.1102 53.649C17.9166 53.8524 17.5042 53.7976 17.2024 53.52C16.8935 53.2488 16.8076 52.8636 17.0017 52.6603C17.1977 52.4565 17.6124 52.514 17.9166 52.7888C18.2231 53.0601 18.3166 53.4476 18.1102 53.649Z" fill="black"/>
<path d="M20.7423 54.7362C20.6569 54.9997 20.2597 55.1196 19.8596 55.0074C19.4601 54.8921 19.1986 54.5835 19.2794 54.3168C19.3624 54.0515 19.7614 53.9271 20.1644 54.0465C20.5633 54.1614 20.8254 54.4682 20.7423 54.7362Z" fill="black"/>
<path d="M23.6332 54.9377C23.6431 55.2153 23.3039 55.4455 22.8839 55.4505C22.4616 55.4592 22.1199 55.2349 22.1153 54.9618C22.1153 54.6815 22.4469 54.4536 22.8692 54.4467C23.2893 54.439 23.6332 54.6619 23.6332 54.9377Z" fill="black"/>
<path d="M26.3232 54.5014C26.3735 54.7722 26.0816 55.0503 25.6646 55.1246C25.2545 55.1957 24.875 55.0289 24.8229 54.7599C24.772 54.4823 25.0691 54.2042 25.4786 54.1326C25.8962 54.0634 26.27 54.2261 26.3232 54.5014Z" fill="black"/>
</svg>
