<svg width="71" height="79" viewBox="0 0 71 79" fill="none" xmlns="http://www.w3.org/2000/svg">
<path d="M35.5312 19.3732C34.9068 19.3732 34.2892 19.4086 33.6808 19.478C33.0724 19.5473 32.4723 19.6501 31.8825 19.7849C31.2928 19.9198 30.7134 20.0869 30.1457 20.2841L28.4793 20.9648L26.8928 21.8172L25.3957 22.8308L23.9969 23.995L22.706 25.2997L21.5324 26.7347L20.4849 28.2894L19.5728 29.9537L18.8063 31.7169C18.5759 32.32 18.3709 32.9383 18.1935 33.5695C18.0161 34.2007 17.866 34.845 17.7445 35.5006C17.6231 36.156 17.5307 36.8229 17.4682 37.4994C17.4056 38.1759 17.3742 38.8623 17.3742 39.5562C17.3742 40.2502 17.4061 40.9365 17.4682 41.613C17.5299 42.2842 17.6221 42.9514 17.7445 43.6122C17.866 44.2702 18.0161 44.912 18.1935 45.5432C18.3709 46.1744 18.5757 46.7925 18.8063 47.3958L19.5728 49.1591L20.4849 50.8231L21.5324 52.378L22.706 53.813L23.9969 55.1179L25.3957 56.282L26.8928 57.2953L28.4793 58.1478L30.1457 58.8287L31.8825 59.3279C32.4769 59.4639 33.0771 59.5665 33.6808 59.6351C34.2956 59.7048 34.9132 59.7399 35.5312 59.7394C36.1555 59.7394 36.7731 59.7042 37.3813 59.6351C37.985 59.5665 38.5852 59.4639 39.1796 59.3279L40.9167 58.8287L42.583 58.1478L44.1693 57.2953L45.6666 56.282L47.0655 55.1179L48.3565 53.813L49.5304 52.378L50.5776 50.8231L51.4898 49.1591L52.2565 47.3958L52.8689 45.5432C53.0464 44.912 53.1967 44.2676 53.318 43.6122L53.5941 41.6128C53.6568 40.9363 53.6883 40.2499 53.6883 39.5559C53.6883 38.862 53.6568 38.1756 53.5941 37.4991C53.5325 36.8281 53.4403 36.161 53.318 35.5003C53.1967 34.8423 53.0464 34.2007 52.8689 33.5692L52.2565 31.7167L51.4898 29.9534L50.5776 28.2891L49.5304 26.7344L48.3565 25.2994L47.0655 23.9948L45.6666 22.8306L44.1693 21.817L42.583 20.9646L40.9167 20.2838L39.1796 19.7847L37.3813 19.4777C36.7666 19.4079 36.1491 19.3731 35.5312 19.3732ZM35.5312 26.3396C35.944 26.3396 36.3514 26.3624 36.7526 26.4074L37.9354 26.6066L39.0779 26.9305L40.1719 27.3727L41.2121 27.927L42.1902 28.5862L43.1045 29.3448L43.9475 30.1956L44.7129 31.1325L45.3953 32.1489L45.9885 33.2387L46.4866 34.3953C46.6362 34.7911 46.7691 35.1968 46.8846 35.6117C47.0002 36.0265 47.0973 36.4504 47.1758 36.8821C47.2542 37.3139 47.3123 37.7533 47.3548 38.1995L47.4158 39.5575C47.4158 40.0163 47.3953 40.4693 47.3548 40.9158C47.3143 41.3623 47.2547 41.8016 47.1758 42.2331C47.0969 42.6646 46.9995 43.0885 46.8846 43.5036L46.4866 44.7199L45.9885 45.8765L45.3953 46.966L44.7129 47.9827L43.9475 48.9196L43.1045 49.7705L42.1902 50.529L41.2121 51.1883L40.1719 51.7425L39.0779 52.1846L37.9354 52.5086L36.7526 52.7075C36.3467 52.7528 35.9389 52.7754 35.531 52.7754C35.1229 52.7754 34.7151 52.7528 34.3091 52.7075L33.1263 52.5086C32.738 52.421 32.3568 52.3127 31.9835 52.1846L30.8895 51.7425L29.8493 51.1883L28.8713 50.529L27.9569 49.7705L27.1139 48.9196L26.3485 47.9827L25.6662 46.966L25.073 45.8765L24.5748 44.7199L24.1768 43.5036L23.8856 42.2331L23.7066 40.9158C23.6659 40.4644 23.6456 40.0111 23.6457 39.5575C23.6456 39.1039 23.6659 38.6507 23.7066 38.1995C23.7469 37.7533 23.8067 37.3136 23.8856 36.8821C23.9638 36.4536 24.061 36.0296 24.177 35.6119L24.5751 34.3955L25.0732 33.239L25.6664 32.1492L26.3487 31.1328L27.1142 30.1959L27.9571 29.345L28.8715 28.5865L29.8495 27.9272L30.8897 27.3729C31.2477 27.2057 31.6129 27.0581 31.984 26.9308L33.1267 26.6069C33.515 26.5193 33.9103 26.4525 34.3095 26.4077C34.7155 26.3625 35.1231 26.3396 35.5312 26.3396Z" fill="url(#paint0_radial_11_62)"/>
<path d="M54.4245 13.6317C54.2805 13.6317 54.1365 13.6398 53.993 13.656C53.8496 13.6721 53.7071 13.6963 53.5656 13.7284C53.4245 13.7605 53.2845 13.8004 53.147 13.8481C53.0089 13.8958 52.8738 13.9512 52.7407 14.0141C52.608 14.0771 52.4784 14.1475 52.3517 14.2249C52.2249 14.3023 52.1022 14.3867 51.9833 14.4778C51.864 14.569 51.7491 14.6668 51.6392 14.7709C51.5288 14.8748 51.4232 14.9849 51.3227 15.1006C51.2226 15.2164 51.1274 15.3378 51.0377 15.4643C50.9479 15.5908 50.8641 15.7222 50.7862 15.8581C50.7083 15.9939 50.6368 16.1339 50.5712 16.2777C50.5062 16.4216 50.447 16.5691 50.3947 16.7196C50.3425 16.8701 50.2971 17.0234 50.2581 17.1789C50.2197 17.3345 50.1881 17.4921 50.164 17.6512C50.1393 17.8103 50.1221 17.9706 50.1117 18.1316C50.1043 18.2456 50.1009 18.3599 50.1009 18.4742C50.1009 18.6358 50.1078 18.7972 50.1226 18.9579C50.1369 19.1185 50.1585 19.2782 50.1871 19.4365C50.2157 19.5947 50.2512 19.7512 50.2936 19.9054C50.3365 20.0597 50.3858 20.2115 50.4421 20.3602C50.4983 20.509 50.5609 20.6545 50.6304 20.7963C50.6994 20.938 50.7749 21.0758 50.8562 21.2091C50.9376 21.3423 51.0248 21.4708 51.1175 21.5943C51.2107 21.7178 51.3088 21.8361 51.4124 21.9486C51.5159 22.0611 51.6239 22.1677 51.7373 22.268C51.8502 22.3684 51.9676 22.4624 52.0889 22.5497C52.2102 22.6369 52.3354 22.7174 52.4636 22.7906C52.5923 22.8639 52.7239 22.93 52.858 22.9885C52.9926 23.047 53.1292 23.0979 53.2683 23.1411C53.4073 23.1842 53.5478 23.2196 53.6898 23.2469C53.8318 23.2744 53.9753 23.2939 54.1188 23.3054C54.2208 23.3135 54.3229 23.3175 54.425 23.3176C54.5689 23.3176 54.7134 23.3095 54.8569 23.2935C54.9999 23.2773 55.1428 23.2532 55.2839 23.2211C55.4254 23.1891 55.5649 23.1491 55.703 23.1014C55.8405 23.0537 55.9761 22.9983 56.1087 22.9354C56.2414 22.8725 56.3715 22.8022 56.4978 22.7248C56.6245 22.6474 56.7472 22.5629 56.8666 22.4717C56.9854 22.3806 57.1003 22.2829 57.2107 22.1789C57.3207 22.0748 57.4262 21.9647 57.5268 21.8489C57.6274 21.7331 57.7225 21.6116 57.8118 21.4852C57.9015 21.3587 57.9853 21.2273 58.0632 21.0914C58.1411 20.9556 58.2131 20.8154 58.2782 20.6715C58.3438 20.5276 58.4029 20.3801 58.4552 20.2296C58.5075 20.0792 58.5528 19.9259 58.5913 19.7703C58.6297 19.6148 58.6613 19.4571 58.6859 19.298C58.7106 19.139 58.7279 18.9786 58.7377 18.8177C58.7451 18.7036 58.7491 18.5893 58.7491 18.475C58.7491 18.3136 58.7417 18.1522 58.7274 17.9916C58.7131 17.8309 58.6914 17.6712 58.6628 17.513C58.6342 17.3548 58.5982 17.1983 58.5558 17.0441C58.5129 16.8898 58.4636 16.738 58.4074 16.5893C58.3512 16.4405 58.2885 16.2949 58.2195 16.1532C58.1505 16.0115 58.075 15.8737 57.9937 15.7404C57.9118 15.6071 57.8246 15.4785 57.7319 15.355C57.6387 15.2315 57.5406 15.1132 57.4375 15.0007C57.334 14.8882 57.2255 14.7816 57.1126 14.6813C56.9997 14.5809 56.8823 14.487 56.7611 14.3998C56.6398 14.3125 56.5145 14.2321 56.3858 14.1589C56.2572 14.0856 56.1255 14.0195 55.9914 13.961C55.8573 13.9025 55.7202 13.8515 55.5812 13.8084C55.4426 13.7651 55.3016 13.7298 55.1596 13.7023C55.0176 13.6749 54.8746 13.6555 54.7307 13.6441C54.6286 13.636 54.5265 13.6317 54.4245 13.6317Z" fill="url(#paint1_radial_11_62)"/>
<path d="M32.0882 0.0714148C30.1134 0.0678713 28.3511 0.0769816 26.768 0.101784L22.5237 0.228326C21.2663 0.289066 20.1554 0.368276 19.1582 0.470776C18.6597 0.521899 18.1893 0.579096 17.7435 0.642115C17.3192 0.701611 16.8962 0.77089 16.4745 0.849901C16.073 0.925829 15.692 1.00782 15.3267 1.09691C14.9615 1.186 14.6125 1.28217 14.2759 1.38543C13.9468 1.4864 13.6202 1.59747 13.2967 1.71849C12.9796 1.83744 12.6703 1.96348 12.3648 2.09812C11.7538 2.3674 11.1579 2.66958 10.5442 3.00821C10.072 3.26889 9.63577 3.53285 9.22135 3.81226C8.80694 4.09167 8.41432 4.38676 8.02994 4.70818C7.63406 5.0408 7.25248 5.394 6.88654 5.76661C6.50393 6.15431 6.11318 6.58075 5.70715 7.05733C5.19699 7.65284 4.75366 8.20809 4.36016 8.75297C4.16341 9.0253 3.97917 9.29462 3.80562 9.56541C3.63399 9.83226 3.46992 10.1051 3.31363 10.3833C3.15896 10.6592 3.01248 10.9402 2.87237 11.2292C2.73007 11.5232 2.59558 11.8218 2.46909 12.1246C2.21024 12.7431 1.96868 13.4093 1.72758 14.1528C1.54871 14.7025 1.38855 15.2596 1.24742 15.8226C1.10344 16.3982 0.975385 17.0003 0.861198 17.6514C0.747016 18.3026 0.647389 19.0029 0.559818 19.7774C0.465453 20.6263 0.390066 21.4777 0.333728 22.3308C0.27004 23.2687 0.217271 24.3008 0.174054 25.4495L0.071699 29.2691L0.0166543 33.9251L0.000732422 39.5529L0.0473609 47.7369L0.192933 53.9375L0.305069 56.3594L0.445182 58.3667C0.490097 58.9077 0.546293 59.4469 0.613728 59.9851C0.675138 60.463 0.741104 60.881 0.81207 61.2431C0.956067 61.9788 1.12634 62.7079 1.32248 63.4288C1.51029 64.1189 1.72506 64.7992 1.96618 65.4685C2.20319 66.1241 2.46249 66.7561 2.74454 67.3645C3.02658 67.9729 3.33137 68.5577 3.65891 69.1195C3.98645 69.6807 4.33673 70.2195 4.71067 70.7352C5.08417 71.2509 5.48148 71.7441 5.90097 72.2142C6.32105 72.6849 6.76416 73.1326 7.23114 73.5583C7.70358 73.989 8.19476 74.3939 8.70276 74.7707C9.17427 75.1213 9.6408 75.4428 10.1107 75.7374C10.5806 76.0326 11.0546 76.2997 11.5419 76.5433C12.0291 76.7863 12.5286 77.0052 13.0504 77.2022C13.5721 77.3991 14.1158 77.5742 14.6903 77.7294C15.2649 77.8852 15.8731 78.0213 16.5168 78.1403C17.1605 78.2594 17.8485 78.3614 18.5837 78.4492C19.3188 78.537 20.1031 78.6094 20.9458 78.6703C21.7886 78.7312 22.6893 78.7795 23.6571 78.8184C25.1522 78.8788 27.4154 78.9139 30.0252 78.9276L38.474 78.9084L46.4746 78.7838L49.5167 78.6884L51.4983 78.5754C51.9238 78.5364 52.34 78.4909 52.7418 78.4377C53.1436 78.3845 53.5396 78.3236 53.9256 78.2539C54.3112 78.1848 54.6884 78.1074 55.0587 78.0213C55.425 77.9362 55.7894 77.8413 56.1513 77.7371C56.5097 77.6356 56.8632 77.5204 57.2133 77.398C57.5629 77.2763 57.9095 77.144 58.2537 77.002C58.5998 76.8593 58.9425 76.7073 59.2822 76.5466C59.6239 76.3842 59.9651 76.2114 60.3077 76.0276C60.8338 75.7456 61.2574 75.5103 61.6291 75.281C61.9792 75.0675 62.3159 74.8289 62.6379 74.5661C62.9554 74.3061 63.271 74.0098 63.6349 73.6368C63.9987 73.2637 64.4114 72.8144 64.9217 72.246C65.3709 71.7468 65.7491 71.3129 66.0755 70.9184C66.4019 70.5239 66.677 70.169 66.9181 69.8267C67.1479 69.5019 67.3619 69.1639 67.5596 68.8139C67.7524 68.4721 67.9299 68.1172 68.1103 67.7238C68.3825 67.1319 68.6246 66.5833 68.841 66.0539C69.0516 65.5442 69.2439 65.0247 69.4174 64.498C69.5885 63.9752 69.7369 63.4436 69.8617 62.9048C69.9899 62.3507 70.1003 61.7654 70.196 61.1235C70.2911 60.4816 70.372 59.7832 70.442 59.0031C70.512 58.2235 70.5717 57.3611 70.6239 56.3928L70.763 53.1413L70.8818 49.0978L70.9671 44.5929L70.9996 39.8825L70.9237 30.6309L70.8221 26.4872L70.6836 22.9293L70.5105 20.1555C70.4479 19.3836 70.3799 18.7757 70.3084 18.3646C70.2285 17.9105 70.1397 17.4585 70.0416 17.0089C69.946 16.5714 69.841 16.1366 69.7266 15.7048C69.6151 15.284 69.4938 14.8665 69.3632 14.4527C69.234 14.044 69.0969 13.6438 68.9535 13.2524C68.8105 12.8608 68.6552 12.4784 68.4939 12.1041C68.3322 11.7298 68.1631 11.3646 67.9856 11.0077C67.8076 10.6509 67.6227 10.3029 67.4289 9.96348C67.2357 9.62411 67.034 9.2933 66.8239 8.97138C66.6154 8.65049 66.3975 8.33696 66.1711 8.03117C65.9458 7.72713 65.7121 7.43104 65.47 7.14335C65.2284 6.8561 64.9784 6.5774 64.7211 6.3077C64.4632 6.0379 64.1979 5.7767 63.9243 5.52412C63.6492 5.27072 63.3676 5.02688 63.0787 4.79297C62.7873 4.55666 62.4895 4.33031 62.1853 4.1142C61.8771 3.89501 61.5635 3.68604 61.244 3.48755C60.9196 3.28575 60.5893 3.09433 60.255 2.91356C59.6993 2.61314 59.1855 2.34665 58.6816 2.11027C58.1856 1.87567 57.6802 1.66732 57.167 1.48591C56.6507 1.30495 56.1133 1.14981 55.5221 1.01593C54.9305 0.882044 54.2855 0.770435 53.5558 0.675525C52.8261 0.580621 52.0111 0.503937 51.0787 0.44016C50.1468 0.376382 49.0983 0.326268 47.9012 0.285774L43.8329 0.184542L38.684 0.116968L32.0905 0.0719168L32.0882 0.0714148ZM35.5126 7.03176L45.0209 7.092L48.6079 7.16891C49.5956 7.1998 50.3495 7.23601 50.7913 7.27776C51.3672 7.33169 51.9149 7.39922 52.4395 7.48025C52.9425 7.55755 53.4434 7.65367 53.9404 7.76849C54.4182 7.87986 54.8738 8.00637 55.3101 8.14912C55.746 8.29187 56.1626 8.45184 56.562 8.62871C56.9619 8.80564 57.344 9.00023 57.7118 9.21337C58.0767 9.42486 58.4312 9.65758 58.7738 9.9106C59.115 10.1624 59.4439 10.4338 59.7634 10.7261C60.0824 11.0184 60.392 11.3317 60.6943 11.6668C61.0138 12.0203 61.3081 12.3804 61.5793 12.752C61.8495 13.1212 62.1 13.5082 62.3283 13.9109C62.5595 14.3192 62.7676 14.7431 62.952 15.1801C63.1403 15.6255 63.3095 16.0962 63.4613 16.5966C63.6137 17.097 63.7488 17.6287 63.8686 18.1969C63.9943 18.7992 64.0993 19.4067 64.1841 20.0178C64.2748 20.6657 64.3528 21.3567 64.4188 22.0964C64.4844 22.8361 64.5391 23.6251 64.584 24.4691C64.62 25.1461 64.6515 26.0395 64.6782 27.0946L64.7447 30.6922L64.7955 39.5046L64.7378 48.3087L64.6683 51.8959L64.5722 54.5049C64.5061 55.7268 64.4361 56.7538 64.3523 57.6475C64.3104 58.0946 64.2645 58.5083 64.2142 58.8961C64.1669 59.2626 64.1107 59.6274 64.0461 59.9906C63.9869 60.322 63.9184 60.6511 63.84 60.9781C63.7655 61.2892 63.6812 61.598 63.588 61.9036C63.4938 62.2103 63.3918 62.5137 63.2813 62.8132C63.1645 63.1303 63.0412 63.4436 62.9116 63.7541C62.7962 64.0311 62.6749 64.3011 62.5467 64.5633C62.42 64.8233 62.2849 65.0779 62.1429 65.3275C62.0019 65.5749 61.854 65.8152 61.6991 66.0478C61.5453 66.2793 61.3841 66.5048 61.2154 66.7237C61.0478 66.9421 60.8728 67.1527 60.6908 67.3568C60.5089 67.5604 60.3201 67.7568 60.1243 67.9466C59.9291 68.1364 59.7259 68.3191 59.5159 68.4946C59.3063 68.6702 59.0889 68.8386 58.8646 68.9999C58.6397 69.1618 58.4085 69.3165 58.1693 69.4646C57.9302 69.6122 57.6837 69.7532 57.4303 69.8876C57.1719 70.0242 56.9106 70.152 56.6453 70.271C56.3717 70.3939 56.0951 70.508 55.8155 70.6139C55.2465 70.8295 54.647 71.0188 54.0154 71.1817C53.3576 71.3513 52.6935 71.4895 52.0249 71.5965C51.7675 71.6382 51.1768 71.6777 50.3307 71.7139L47.1065 71.8137L37.965 71.9459L28.3968 71.9624L24.6393 71.918L22.1993 71.8335L20.4002 71.6925C19.8415 71.6404 19.322 71.5822 18.8352 71.5158C18.3485 71.45 17.8952 71.3765 17.4687 71.2931C17.0645 71.2157 16.6628 71.1225 16.2643 71.015C15.9009 70.9168 15.5412 70.8021 15.1862 70.6715C14.8439 70.5448 14.5165 70.4054 14.1981 70.2524C13.8796 70.0993 13.5703 69.9315 13.2639 69.7482C12.9575 69.565 12.6544 69.3664 12.3477 69.1491C12.1164 68.9856 11.8928 68.82 11.6777 68.645C11.4625 68.4694 11.2546 68.2944 11.0544 68.1112C10.8543 67.9279 10.6621 67.7392 10.4767 67.545C10.2925 67.3513 10.1147 67.1505 9.94353 66.9432C9.77294 66.7358 9.60983 66.5229 9.45334 66.3024C9.29625 66.0808 9.14656 65.8525 9.00461 65.6188C8.86049 65.3813 8.72416 65.1382 8.59586 64.8903C8.46619 64.6395 8.34293 64.3806 8.22578 64.1129C8.10665 63.8408 7.99552 63.5643 7.89257 63.2839C7.78794 62.9981 7.68874 62.7035 7.5955 62.3996C7.40898 61.7906 7.24524 61.1427 7.10284 60.452C6.96045 59.7613 6.83896 59.0273 6.73616 58.2449C6.63335 57.4632 6.55057 56.6337 6.4846 55.7526C6.43594 55.1036 6.39728 54.0924 6.3677 52.8169L6.30582 48.2803L6.32855 36.7156L6.50758 25.6649L6.64405 21.7715L6.72137 20.4845C6.74824 20.1408 6.776 19.8862 6.8044 19.7333C6.89813 19.2305 6.9925 18.7625 7.09007 18.3244C7.18124 17.9111 7.28266 17.5007 7.39419 17.0937C7.5002 16.7095 7.61187 16.3496 7.73129 16.0087C7.84642 15.6784 7.97476 15.3541 8.11592 15.0366C8.25373 14.7278 8.40185 14.4322 8.56263 14.1444C8.72347 13.8567 8.89702 13.5776 9.08626 13.2999C9.27549 13.0223 9.47927 12.7482 9.70105 12.4703C9.92282 12.1924 10.1624 11.9118 10.4221 11.6225C10.7248 11.2837 11.04 10.959 11.3669 10.6494C11.6756 10.3572 11.9975 10.0827 12.3314 9.8271C12.6596 9.57397 12.9962 9.34877 13.3468 9.14172C13.6973 8.93473 14.0616 8.74765 14.4449 8.57939C14.8281 8.41108 15.2308 8.26048 15.6572 8.12383C16.1053 7.98398 16.5583 7.86466 17.0151 7.76619C17.4955 7.66146 18.0057 7.57006 18.5505 7.49034C19.0952 7.41063 19.6748 7.34178 20.2944 7.28204C20.7266 7.24056 21.4712 7.20359 22.4518 7.17248L26.0206 7.09403L35.5142 7.02946L35.5126 7.03176Z" fill="url(#paint2_radial_11_62)"/>
<defs>
<radialGradient id="paint0_radial_11_62" cx="0" cy="0" r="1" gradientUnits="userSpaceOnUse" gradientTransform="translate(11.3118 84.6759) rotate(-10.5819) scale(150.544 101.016)">
<stop stop-color="#FED576"/>
<stop offset="0.263" stop-color="#F47133"/>
<stop offset="0.609" stop-color="#BC3081"/>
<stop offset="1" stop-color="#4C63D2"/>
</radialGradient>
<radialGradient id="paint1_radial_11_62" cx="0" cy="0" r="1" gradientUnits="userSpaceOnUse" gradientTransform="translate(11.312 84.6759) rotate(-10.5819) scale(150.544 101.016)">
<stop stop-color="#FED576"/>
<stop offset="0.263" stop-color="#F47133"/>
<stop offset="0.609" stop-color="#BC3081"/>
<stop offset="1" stop-color="#4C63D2"/>
</radialGradient>
<radialGradient id="paint2_radial_11_62" cx="0" cy="0" r="1" gradientUnits="userSpaceOnUse" gradientTransform="translate(11.3121 84.6759) rotate(-10.5819) scale(150.544 101.016)">
<stop stop-color="#FED576"/>
<stop offset="0.263" stop-color="#F47133"/>
<stop offset="0.609" stop-color="#BC3081"/>
<stop offset="1" stop-color="#4C63D2"/>
</radialGradient>
</defs>
</svg>
