<svg width="60" height="65" viewBox="0 0 60 65" fill="none" xmlns="http://www.w3.org/2000/svg">
<g clip-path="url(#clip0_11_175)">
<path fill-rule="evenodd" clip-rule="evenodd" d="M2.5896e-05 50.9167V14.0834C-0.0033868 12.2329 0.330539 10.3999 0.982641 8.68953C1.63474 6.97919 2.59219 5.42519 3.80003 4.1167C5.00787 2.8082 6.44233 1.77097 8.02111 1.06453C9.59988 0.358084 11.2919 -0.00366903 13 2.8054e-05H47C48.7082 -0.00366903 50.4002 0.358084 51.9789 1.06453C53.5577 1.77097 54.9922 2.8082 56.2 4.1167C57.4079 5.42519 58.3653 6.97919 59.0174 8.68953C59.6695 10.3999 60.0034 12.2329 60 14.0834V50.9167C60.0034 52.7672 59.6695 54.6002 59.0174 56.3105C58.3653 58.0209 57.4079 59.5749 56.2 60.8834C54.9922 62.1919 53.5577 63.2291 51.9789 63.9355C50.4002 64.642 48.7082 65.0037 47 65H13C9.5527 64.9983 6.24702 63.514 3.80939 60.8732C1.37177 58.2325 0.00161587 54.6513 2.5896e-05 50.9167Z" fill="url(#paint0_linear_11_175)"/>
<path fill-rule="evenodd" clip-rule="evenodd" d="M49.5 46.6917C49.0428 46.9736 48.5261 47.1229 48 47.125H12C11.473 47.1301 10.9546 46.9803 10.5 46.6917L22.5 33.6917L25.45 36.8875C26.0519 37.5152 26.7662 38.0025 27.5488 38.3192C28.3314 38.636 29.1656 38.7755 30 38.7292C30.8339 38.7706 31.6668 38.6288 32.4488 38.3123C33.2307 37.9958 33.9455 37.5111 34.55 36.8875L37.5 33.6917L49.5 46.6917ZM50.55 45.5L38.55 32.5L50.55 19.5C50.8103 19.9953 50.9481 20.5551 50.95 21.125V43.875C50.9966 44.4507 50.855 45.0259 50.55 45.5ZM9.39999 45.5C9.1397 45.0047 9.00192 44.4449 8.99999 43.875V21.125C8.9953 20.5541 9.13353 19.9925 9.39999 19.5L21.4 32.5L9.39999 45.5ZM49.5 18.3083L33.45 35.6958C32.993 36.1716 32.4516 36.5418 31.8585 36.7839C31.2654 37.026 30.6331 37.1349 30 37.1042C29.3669 37.1349 28.7345 37.026 28.1415 36.7839C27.5484 36.5418 27.007 36.1716 26.55 35.6958L10.5 18.3083C10.9572 18.0264 11.4739 17.8771 12 17.875H48C48.5261 17.8771 49.0428 18.0263 49.5 18.3083Z" fill="white"/>
</g>
<defs>
<linearGradient id="paint0_linear_11_175" x1="30" y1="2.8054e-05" x2="30" y2="65.0006" gradientUnits="userSpaceOnUse">
<stop stop-color="#1D6FF2"/>
<stop offset="1" stop-color="#1AC8FC"/>
</linearGradient>
<clipPath id="clip0_11_175">
<rect width="60" height="65" fill="white"/>
</clipPath>
</defs>
</svg>
