<svg width="87" height="68" viewBox="0 0 87 68" fill="none" xmlns="http://www.w3.org/2000/svg">
<path d="M77.4453 17.0967C77.4977 17.82 77.4977 18.5433 77.4977 19.2733C77.4977 41.5167 59.772 67.1699 27.3597 67.1699V67.1566C17.785 67.1699 8.40925 64.55 0.348969 59.6101C1.7412 59.7701 3.14041 59.8499 4.54311 59.8532C12.4778 59.8599 20.1856 57.3165 26.428 52.6334C18.8877 52.4965 12.2754 47.8002 9.96547 40.9433C12.6069 41.43 15.3286 41.33 17.9211 40.6534C9.70031 39.0667 3.78593 32.1667 3.78593 24.1533C3.78593 24.08 3.78593 24.01 3.78593 23.94C6.23544 25.2434 8.97802 25.9667 11.7834 26.0467C4.04065 21.1034 1.65397 11.2634 6.32966 3.57002C15.2762 14.0867 28.4763 20.48 42.6463 21.1567C41.2261 15.31 43.1662 9.18338 47.7442 5.07334C54.8416 -1.29998 66.0038 -0.973312 72.6752 5.80335C76.6218 5.06003 80.4043 3.67669 83.8655 1.71669C82.5502 5.61338 79.7968 8.92337 76.1191 11.0267C79.6119 10.6333 83.0247 9.74003 86.2383 8.37668C83.8725 11.7634 80.8927 14.7133 77.4453 17.0967Z" fill="#1D9BF0"/>
</svg>
