<svg width="118" height="87" viewBox="0 0 118 87" fill="none" xmlns="http://www.w3.org/2000/svg">
<path d="M53.6677 63.016L32.63 62.6737C25.8185 62.5546 18.99 62.7925 12.3121 61.5572C2.15342 59.7107 1.43374 50.6591 0.680672 43.0661C-0.356976 32.3915 0.0447293 21.5231 2.00291 10.9376C3.10836 4.99804 7.45881 1.45384 14.1865 1.06816C36.8977 -0.331513 59.7599 -0.165638 82.4207 0.487359C84.8141 0.54722 87.2238 0.874405 89.5838 1.24683C101.232 3.06325 101.517 13.3211 102.272 21.9563C103.025 30.6806 102.707 39.4497 101.267 48.1146C100.113 55.289 97.9035 61.3053 88.5794 61.8859C76.8968 62.6457 65.4827 63.257 53.7677 63.0624C53.7682 63.016 53.7012 63.016 53.6677 63.016ZM41.2995 44.8527C50.1033 40.3563 58.7388 35.9348 67.492 31.4684C58.6718 26.9719 50.0526 22.5504 41.2995 18.084V44.8527Z" fill="#FF0000"/>
</svg>
