<svg width="73" height="66" viewBox="0 0 73 66" fill="none" xmlns="http://www.w3.org/2000/svg">
<path d="M73 33C73 14.7746 56.6584 0 36.5 0C16.3416 0 0 14.7746 0 33C0 51.2254 16.3416 66 36.5 66C56.6584 66 73 51.2254 73 33Z" fill="#00D95F"/>
<path d="M18.2501 48.2779L20.8689 39.4743C18.757 36.0448 18.086 32.0429 18.9791 28.203C19.8722 24.3631 22.2695 20.9426 25.7311 18.5693C29.1927 16.1961 33.4865 15.0291 37.8244 15.2826C42.1623 15.5361 46.2535 17.1932 49.3471 19.9496C52.4407 22.706 54.3293 26.377 54.6663 30.2888C55.0033 34.2007 53.7661 38.091 51.1818 41.246C48.5974 44.4009 44.8392 46.6089 40.5969 47.4646C36.3545 48.3204 31.9126 47.7666 28.0861 45.9048L18.2501 48.2779ZM28.5603 42.6105L29.1687 42.9361C31.9402 44.4189 35.1774 45.0326 38.3758 44.6814C41.574 44.3301 44.5538 43.0339 46.8506 40.9945C49.1475 38.9551 50.6324 36.2872 51.074 33.4066C51.5157 30.5259 50.8892 27.5943 49.2921 25.0686C47.6951 22.5429 45.2173 20.565 42.2449 19.443C39.2724 18.3211 35.9723 18.1182 32.8587 18.866C29.7452 19.6137 26.9931 21.2702 25.0314 23.5771C23.0697 25.884 22.0086 28.7118 22.0133 31.6199C22.0108 34.0312 22.7495 36.3959 24.1476 38.4506L24.5291 39.0183L23.065 43.9319L28.5603 42.6105Z" fill="white"/>
<path fill-rule="evenodd" clip-rule="evenodd" d="M43.3243 33.881C42.9677 33.6213 42.5501 33.4386 42.1034 33.3467C41.6568 33.2548 41.1928 33.2561 40.7467 33.3505C40.0766 33.6018 39.6435 34.551 39.2105 35.0256C39.1192 35.1394 38.985 35.2192 38.8332 35.25C38.6813 35.2809 38.5222 35.2606 38.3857 35.1931C35.9322 34.3258 33.8757 32.7351 32.5501 30.6796C32.437 30.5514 32.3835 30.3885 32.4008 30.2254C32.4182 30.0622 32.5049 29.9114 32.6429 29.8048C33.1259 29.3733 33.4805 28.8388 33.6739 28.2507C33.7169 27.6021 33.5522 26.9561 33.1997 26.3895C32.9271 25.5953 32.4083 24.8881 31.7047 24.3515C31.3418 24.2042 30.9393 24.1548 30.546 24.2093C30.1527 24.2638 29.7853 24.4198 29.488 24.6586C28.9719 25.0604 28.5623 25.5617 28.2893 26.1254C28.0163 26.6891 27.8869 27.3009 27.9106 27.9157C27.9121 28.261 27.9606 28.6048 28.0549 28.9394C28.2943 29.7434 28.6625 30.5115 29.1478 31.2194C29.4979 31.7617 29.8799 32.2867 30.2922 32.7922C31.632 34.4524 33.3162 35.8619 35.2514 36.9427C36.2225 37.4919 37.2603 37.9384 38.3444 38.2734C39.4707 38.7342 40.7141 38.9111 41.9427 38.7852C42.6427 38.6897 43.306 38.4402 43.8741 38.0588C44.4422 37.6775 44.8978 37.1759 45.2008 36.5983C45.3787 36.2494 45.4328 35.8593 45.3554 35.4816C45.1698 34.7092 44.0253 34.2532 43.3243 33.881Z" fill="white"/>
</svg>
